<?xml version="1.0" encoding="utf-8"?>
<svg height="50px" style="enable-background:new 0 0 67 67;" version="1.1" viewBox="0 0 67 67" width="{{ .size }}" xmlns="http://www.w3.org/2000/svg">
  <path d="M 62.268 35.065 A 29.781 29.781 0 0 1 32.487 64.846 A 29.781 29.781 0 0 1 2.706 35.065 A 29.781 29.781 0 0 1 32.487 5.284 A 29.781 29.781 0 0 1 62.268 35.065 Z" style="" transform="matrix(1.008127, 0, 0, 1.016254, -0.021992, -1.054014)"/>
  <path d="M 38.095 19.479 C 38.586 23.231 40.944 25.467 45.044 25.705 L 45.044 29.924 C 42.667 30.131 40.587 29.44 38.166 28.14 L 38.166 36.031 C 38.166 46.055 25.857 49.188 20.909 42.003 C 17.729 37.379 19.676 29.265 29.877 28.94 L 29.877 33.39 C 29.1 33.501 28.269 33.675 27.51 33.905 C 25.242 34.587 23.954 35.864 24.312 38.117 C 25 42.431 33.914 43.708 33.172 35.277 L 33.172 19.487 L 38.095 19.487 Z" style="mix-blend-mode: exclusion; filter: none; fill-rule: evenodd; fill: rgb(255, 255, 255);"/>
</svg>